<svg width="24" height="24" viewBox="0 0 24 24" fill="none" xmlns="http://www.w3.org/2000/svg">
<path d="M16.875 12C15.9306 13.112 14.6335 13.8665 13.2 14.1375M8.24999 13.05C7.30127 12.3573 6.56239 11.416 6.11489 10.3299C5.66739 9.24384 5.52867 8.05523 5.71404 6.89528C5.89941 5.73533 6.40167 4.64915 7.16537 3.75663C7.92908 2.8641 8.92454 2.19994 10.0419 1.83744C11.1592 1.47495 12.355 1.42822 13.4972 1.70241C14.6394 1.9766 15.6837 2.56105 16.5147 3.39125C17.3457 4.22145 17.9312 5.26511 18.2066 6.40706C18.4819 7.549 18.4364 8.74482 18.075 9.86252" stroke="white" stroke-miterlimit="10" stroke-linecap="round" stroke-linejoin="round"/>
<path d="M5.92501 9.86249C7.48457 9.55774 9.10173 9.84643 10.4595 10.672C11.8173 11.4975 12.8178 12.8004 13.265 14.3252C13.7121 15.8501 13.5737 17.487 12.8768 18.915C12.1799 20.3431 10.9747 21.4594 9.49758 22.0452C8.02043 22.631 6.37776 22.644 4.89153 22.0816C3.40531 21.5193 2.18268 20.4221 1.46329 19.0052C0.7439 17.5883 0.579608 15.9538 1.00262 14.4221C1.42563 12.8904 2.40544 11.5719 3.75001 10.725" stroke="white" stroke-miterlimit="10" stroke-linecap="round" stroke-linejoin="round"/>
<path d="M12 20.25C11.3065 19.4343 10.8296 18.457 10.6133 17.4084C10.397 16.3598 10.4483 15.2736 10.7625 14.25M12 12C12.7661 11.0964 13.7688 10.4241 14.8957 10.0585C16.0226 9.693 17.2291 9.64871 18.3797 9.93063C19.5304 10.2125 20.5797 10.8095 21.41 11.6546C22.2403 12.4996 22.8187 13.5593 23.0803 14.7147C23.3419 15.8702 23.2764 17.0757 22.8911 18.1959C22.5058 19.3162 21.8159 20.307 20.8989 21.057C19.9819 21.8071 18.874 22.2868 17.6996 22.4423C16.5252 22.5979 15.3306 22.423 14.25 21.9375" stroke="white" stroke-miterlimit="10" stroke-linecap="round" stroke-linejoin="round"/>
</svg>
