<svg width="168" height="168" viewBox="0 0 168 168" fill="none" xmlns="http://www.w3.org/2000/svg">
<rect width="168" height="168" rx="8" fill="black"/>
<path d="M0 145H168V160C168 164.418 164.418 168 160 168H8C3.58172 168 0 164.418 0 160V145Z" fill="#CDCDCD"/>
<path d="M14 131L0 136.5V156L110.5 150L168 147.614C167 146.743 165 140.4 165 122C164 113 162 117 160.5 112.5C159 108 159 108.5 154 80.5C153.5 75.5 152.5 74 148 67.5C143.5 61 148 63 148 45.5C147 42.5 145.5 40 140.5 35.5C139.167 39.6667 136.3 49.1 135.5 53.5C134.5 59 133.5 58.5 119 89.5C113.4 94.7 117 95.5 117 95.5L119 97.5C116.833 99.6667 112.1 104.9 110.5 108.5C108.9 112.1 107.5 115.667 107 117C102.833 120.333 103.054 125.25 101 131C98.5 138 91 131 87.5 131C84 131 86 127 76 117C70.5 112 72 109 69.5 104C67 99 63 105 61.5 115.5C55.5 131 49.5 125.5 47 127C44.5 128.5 42.5 131 29.5 145H25.5L17 136.5L14 131Z" fill="#CDCDCD"/>
</svg>
