<svg width="102" height="21" viewBox="0 0 102 21" fill="none" xmlns="http://www.w3.org/2000/svg">
<path d="M12.706 10.3467C12.706 13.9694 10.2142 16.2283 7.13872 16.2283C5.65149 16.2283 4.54308 15.8102 3.78824 14.9095V16.0403H0V0.508545H3.97624V5.68019C4.75072 4.88606 5.81705 4.50724 7.13591 4.50724C10.2142 4.50724 12.7032 6.74651 12.7032 10.3467H12.706ZM8.6877 10.3467C8.6877 8.6294 7.64102 7.66691 6.30251 7.66691C4.964 7.66691 3.91732 8.6294 3.91732 10.3467C3.91732 12.0641 4.964 13.0687 6.30251 13.0687C7.64102 13.0687 8.6877 12.0837 8.6877 10.3467Z" fill="#FF6200"/>
<path d="M26.1866 4.69531L21.2871 16.5034C20.0945 19.433 18.4193 20.2916 16.18 20.2916C14.9874 20.2916 13.6461 19.8932 12.8941 19.2646L14.2747 16.4809C14.7349 16.899 15.4055 17.1516 16.0341 17.1516C16.8086 17.1516 17.2491 16.8598 17.5831 16.1891L12.7257 4.69531H16.8086L19.5922 11.6236L22.3983 4.69531H26.1866Z" fill="#FF6200"/>
<path d="M43.6656 15.4974C43.284 15.7527 42.8126 15.9464 42.2542 16.0726C41.6958 16.1989 41.1177 16.2634 40.5172 16.2634C38.9009 16.2634 37.6606 15.8958 36.7935 15.1578C35.9264 14.4226 35.4943 13.3395 35.4943 11.9112V1.27325H39.3919V4.22527H42.7144V6.93035H39.3919V11.8663C39.3919 12.377 39.5322 12.7727 39.8157 13.0505C40.0991 13.3283 40.506 13.4658 41.0419 13.4658C41.6424 13.4658 42.1756 13.317 42.6414 13.0168L43.6656 15.4974Z" fill="#FF6200"/>
<path d="M53.995 13.1656C54.5366 12.9776 55.0417 12.6801 55.5075 12.2761L57.5812 14.3049C56.3157 15.6125 54.4665 16.2663 52.0336 16.2663C50.5183 16.2663 49.177 15.9998 48.0124 15.4666C46.8451 14.9334 45.9471 14.1926 45.313 13.247C44.6788 12.3013 44.3645 11.2266 44.3645 10.0256C44.3645 8.82455 44.676 7.76945 45.3017 6.81257C45.9275 5.8585 46.7834 5.11488 47.8749 4.58172C48.9665 4.04856 50.1956 3.78198 51.5622 3.78198C52.8445 3.78198 54.0119 4.02611 55.0614 4.51437C56.1108 5.00264 56.947 5.70977 57.5728 6.63298C58.1986 7.55619 58.5101 8.65057 58.5101 9.91332L48.5652 11.6503C48.8486 12.2508 49.2948 12.7026 49.9037 13.0028C50.5127 13.3031 51.2563 13.4546 52.1402 13.4546C52.8389 13.4546 53.4591 13.362 54.0006 13.174L53.995 13.1656ZM49.1601 7.29522C48.5428 7.86486 48.2201 8.65618 48.1836 9.66077L54.7302 8.51026C54.5478 7.87889 54.1718 7.3766 53.6078 7.00058C53.0409 6.62456 52.3591 6.43656 51.5593 6.43656C50.5772 6.43656 49.7775 6.72278 49.1601 7.29242V7.29522Z" fill="#FF6200"/>
<path d="M63.3167 15.5058C62.1803 14.9643 61.2851 14.2178 60.6313 13.261C59.9775 12.3041 59.6492 11.2294 59.6492 10.0368C59.6492 8.84416 59.9775 7.76382 60.6313 6.80132C61.2851 5.83883 62.1803 5.08679 63.3167 4.54522C64.4532 4.00364 65.7328 3.73425 67.1499 3.73425C68.4435 3.73425 69.5603 3.91104 70.5032 4.2618C71.446 4.61256 72.2598 5.17659 72.9445 5.94827L70.5621 7.90973C69.6754 6.93882 68.5838 6.45617 67.2902 6.45617C66.1537 6.45617 65.2137 6.78729 64.4757 7.44673C63.7348 8.10897 63.3673 8.97324 63.3673 10.0396C63.3673 10.7439 63.5328 11.364 63.8696 11.9056C64.2035 12.4472 64.6721 12.8653 65.2726 13.16C65.8731 13.4546 66.5466 13.6033 67.2958 13.6033C68.5894 13.6033 69.6782 13.1179 70.5677 12.1498L72.9501 14.1084C72.2794 14.8661 71.4656 15.4245 70.5088 15.7837C69.5519 16.1428 68.4323 16.3196 67.1555 16.3196C65.7384 16.3196 64.4588 16.0474 63.3223 15.5087L63.3167 15.5058Z" fill="#FF6200"/>
<path d="M76.4858 15.9576C75.4476 15.7191 74.6198 15.402 73.9968 15.0092L75.282 12.5426C75.8881 12.9074 76.5981 13.1964 77.4091 13.4069C78.22 13.6173 79.045 13.724 79.8868 13.724C80.6669 13.724 81.231 13.6286 81.5817 13.4406C81.9325 13.2497 82.1065 12.9944 82.1065 12.6717C82.1065 12.3069 81.8876 12.0347 81.4526 11.8607C81.0149 11.6839 80.3246 11.5128 79.3733 11.3444C78.3295 11.148 77.4736 10.9403 76.8029 10.7214C76.1323 10.5026 75.5514 10.149 75.0603 9.65793C74.5693 9.16687 74.3252 8.4906 74.3252 7.63474C74.3252 6.87709 74.5665 6.20082 75.0491 5.61154C75.5318 5.02225 76.2305 4.56205 77.1396 4.23093C78.0516 3.89981 79.1236 3.73425 80.3527 3.73425C81.2562 3.73425 82.1345 3.82124 82.9932 3.99803C83.8491 4.17481 84.5898 4.43859 85.2128 4.78935L84.0202 7.25591C82.9006 6.63857 81.6294 6.3299 80.2123 6.3299C79.4491 6.3299 78.8851 6.43092 78.5175 6.63577C78.1499 6.84061 77.9675 7.11 77.9675 7.44673C77.9675 7.81152 78.1863 8.0781 78.6213 8.24646C79.0562 8.41483 79.7493 8.5832 80.7006 8.75156C81.7304 8.94799 82.5835 9.15564 83.2598 9.37171C83.9388 9.59059 84.5225 9.94135 85.0108 10.4268C85.5018 10.9123 85.7488 11.5689 85.7488 12.3967C85.7488 13.1684 85.5102 13.8503 85.036 14.4395C84.5618 15.0288 83.8631 15.4918 82.9455 15.8201C82.0251 16.1512 80.9363 16.3168 79.6736 16.3168C78.582 16.3168 77.5185 16.199 76.483 15.9576H76.4858Z" fill="#FF6200"/>
<path d="M90.3199 15.5058C89.175 14.9643 88.2743 14.2178 87.6204 13.261C86.9666 12.3041 86.6383 11.2294 86.6383 10.0368C86.6383 8.84417 86.9666 7.76382 87.6204 6.80132C88.2743 5.83883 89.175 5.08679 90.3199 4.54522C91.4648 4.00364 92.7528 3.73425 94.1867 3.73425C95.6206 3.73425 96.9086 4.00644 98.0535 4.54522C99.1984 5.08679 100.099 5.83883 100.753 6.80132C101.407 7.76382 101.735 8.84417 101.735 10.0368C101.735 11.2294 101.407 12.3069 100.753 13.261C100.099 14.2178 99.1984 14.9643 98.0535 15.5058C96.9086 16.0474 95.6206 16.3168 94.1867 16.3168C92.7528 16.3168 91.4648 16.0446 90.3199 15.5058ZM96.1398 13.1319C96.7234 12.8232 97.178 12.3967 97.5063 11.8579C97.8346 11.3163 97.9974 10.7102 97.9974 10.0339C97.9974 9.35768 97.8346 8.72912 97.5063 8.19034C97.178 7.64877 96.7234 7.22504 96.1398 6.91357C95.5561 6.6049 94.9051 6.45056 94.1895 6.45056C93.4739 6.45056 92.8229 6.6049 92.2393 6.91357C91.6556 7.22224 91.1954 7.64877 90.8615 8.19034C90.5275 8.73192 90.3592 9.34646 90.3592 10.0339C90.3592 10.7214 90.5247 11.3163 90.8615 11.8579C91.1954 12.3995 91.6556 12.8232 92.2393 13.1319C92.8229 13.4406 93.4739 13.5949 94.1895 13.5949C94.9051 13.5949 95.5561 13.4406 96.1398 13.1319Z" fill="#FF6200"/>
<path d="M32.7724 7.4861C33.8696 7.4861 34.7591 6.6833 34.7591 5.693C34.7591 4.7027 33.8696 3.8999 32.7724 3.8999C31.6751 3.8999 30.7856 4.7027 30.7856 5.693C30.7856 6.6833 31.6751 7.4861 32.7724 7.4861Z" fill="#FF6200"/>
</svg>
