<svg width="304" height="70" viewBox="0 0 304 70" fill="none" xmlns="http://www.w3.org/2000/svg">
<path d="M225.014 61.2181C225.014 64.4171 222.803 66.4119 220.075 66.4119C218.755 66.4119 217.772 66.0427 217.102 65.2472V66.2459H213.741V52.5303H217.269V57.0972C217.956 56.396 218.902 56.0614 220.072 56.0614C222.803 56.0614 225.011 58.0388 225.011 61.2181H225.014ZM221.449 61.2181C221.449 59.7016 220.52 58.8516 219.333 58.8516C218.145 58.8516 217.217 59.7016 217.217 61.2181C217.217 62.7346 218.145 63.6217 219.333 63.6217C220.52 63.6217 221.449 62.7519 221.449 61.2181Z" fill="#FF6200"/>
<path d="M236.974 56.2275L232.627 66.6547C231.569 69.2417 230.083 70 228.096 70C227.038 70 225.848 69.6481 225.181 69.0931L226.405 66.6349C226.814 67.0041 227.409 67.2272 227.966 67.2272C228.654 67.2272 229.044 66.9694 229.341 66.3772L225.031 56.2275H228.654L231.123 62.3456L233.613 56.2275H236.974Z" fill="#FF6200"/>
<path d="M252.481 65.7651C252.143 65.9906 251.724 66.1616 251.229 66.2731C250.733 66.3846 250.221 66.4416 249.688 66.4416C248.254 66.4416 247.153 66.117 246.384 65.4653C245.615 64.8161 245.232 63.8596 245.232 62.5983V53.2043H248.69V55.8112H251.637V58.1999H248.69V62.5587C248.69 63.0097 248.814 63.359 249.065 63.6044C249.317 63.8497 249.678 63.9711 250.153 63.9711C250.686 63.9711 251.159 63.8398 251.572 63.5746L252.481 65.7651Z" fill="#FF6200"/>
<path d="M261.645 63.7059C262.126 63.5399 262.574 63.2772 262.987 62.9204L264.827 64.712C263.704 65.8667 262.063 66.4441 259.905 66.4441C258.561 66.4441 257.371 66.2087 256.337 65.7379C255.302 65.267 254.505 64.6129 253.942 63.7778C253.38 62.9427 253.101 61.9937 253.101 60.9331C253.101 59.8725 253.377 58.9408 253.933 58.0958C254.488 57.2533 255.247 56.5967 256.215 56.1258C257.184 55.655 258.274 55.4196 259.487 55.4196C260.624 55.4196 261.66 55.6352 262.591 56.0664C263.522 56.4975 264.264 57.122 264.819 57.9372C265.375 58.7525 265.651 59.7189 265.651 60.834L256.828 62.3678C257.079 62.8981 257.475 63.2971 258.015 63.5622C258.556 63.8274 259.215 63.9612 260 63.9612C260.619 63.9612 261.17 63.8794 261.65 63.7134L261.645 63.7059ZM257.356 58.522C256.808 59.0251 256.522 59.7238 256.489 60.611L262.297 59.595C262.136 59.0374 261.802 58.5939 261.302 58.2618C260.799 57.9298 260.194 57.7638 259.484 57.7638C258.613 57.7638 257.903 58.0165 257.356 58.5196V58.522Z" fill="#FF6200"/>
<path d="M269.915 65.7726C268.907 65.2943 268.113 64.6352 267.533 63.7902C266.953 62.9452 266.662 61.9961 266.662 60.943C266.662 59.8899 266.953 58.9359 267.533 58.0859C268.113 57.236 268.907 56.5719 269.915 56.0936C270.924 55.6154 272.059 55.3775 273.316 55.3775C274.464 55.3775 275.455 55.5336 276.291 55.8434C277.128 56.1531 277.85 56.6512 278.457 57.3326L276.344 59.0647C275.557 58.2073 274.588 57.7811 273.441 57.7811C272.432 57.7811 271.598 58.0735 270.944 58.6559C270.286 59.2407 269.96 60.0039 269.96 60.9455C269.96 61.5675 270.107 62.1151 270.406 62.5933C270.702 63.0716 271.118 63.4408 271.651 63.701C272.183 63.9612 272.781 64.0925 273.446 64.0925C274.593 64.0925 275.559 63.6638 276.348 62.8089L278.462 64.5385C277.867 65.2076 277.145 65.7007 276.296 66.0179C275.447 66.3351 274.454 66.4912 273.321 66.4912C272.064 66.4912 270.929 66.2508 269.92 65.775L269.915 65.7726Z" fill="#FF6200"/>
<path d="M281.599 66.1715C280.678 65.9609 279.943 65.6809 279.391 65.334L280.531 63.1558C281.069 63.478 281.699 63.7332 282.418 63.919C283.138 64.1049 283.869 64.1991 284.616 64.1991C285.308 64.1991 285.809 64.1148 286.12 63.9488C286.431 63.7803 286.586 63.5548 286.586 63.2698C286.586 62.9477 286.391 62.7073 286.005 62.5537C285.617 62.3976 285.005 62.2464 284.161 62.0977C283.235 61.9243 282.475 61.7409 281.88 61.5476C281.285 61.3544 280.77 61.0421 280.334 60.6085C279.899 60.1748 279.682 59.5777 279.682 58.8219C279.682 58.1528 279.896 57.5556 280.324 57.0353C280.753 56.5149 281.372 56.1085 282.179 55.8161C282.988 55.5237 283.939 55.3775 285.03 55.3775C285.831 55.3775 286.61 55.4543 287.372 55.6104C288.132 55.7665 288.789 55.9995 289.342 56.3092L288.283 58.4873C287.29 57.9422 286.162 57.6696 284.905 57.6696C284.228 57.6696 283.728 57.7588 283.401 57.9397C283.075 58.1206 282.913 58.3585 282.913 58.6559C282.913 58.978 283.108 59.2134 283.494 59.3621C283.879 59.5107 284.494 59.6594 285.338 59.8081C286.252 59.9816 287.009 60.1649 287.609 60.3557C288.211 60.549 288.729 60.8588 289.162 61.2874C289.598 61.7161 289.817 62.296 289.817 63.027C289.817 63.7084 289.605 64.3106 289.185 64.8309C288.764 65.3513 288.144 65.7602 287.33 66.0501C286.513 66.3425 285.547 66.4887 284.427 66.4887C283.459 66.4887 282.515 66.3846 281.596 66.1715H281.599Z" fill="#FF6200"/>
<path d="M293.872 65.7726C292.857 65.2943 292.058 64.6352 291.478 63.7902C290.897 62.9452 290.606 61.9961 290.606 60.943C290.606 59.8899 290.897 58.9359 291.478 58.0859C292.058 57.236 292.857 56.5719 293.872 56.0936C294.888 55.6154 296.031 55.3775 297.303 55.3775C298.575 55.3775 299.718 55.6179 300.734 56.0936C301.749 56.5719 302.549 57.236 303.129 58.0859C303.709 58.9359 304 59.8899 304 60.943C304 61.9961 303.709 62.9477 303.129 63.7902C302.549 64.6352 301.749 65.2943 300.734 65.7726C299.718 66.2508 298.575 66.4887 297.303 66.4887C296.031 66.4887 294.888 66.2483 293.872 65.7726ZM299.036 63.6762C299.554 63.4036 299.957 63.027 300.248 62.5512C300.54 62.073 300.684 61.5377 300.684 60.9405C300.684 60.3433 300.54 59.7883 300.248 59.3125C299.957 58.8343 299.554 58.4601 299.036 58.185C298.518 57.9125 297.94 57.7762 297.306 57.7762C296.671 57.7762 296.093 57.9125 295.575 58.185C295.058 58.4576 294.649 58.8343 294.353 59.3125C294.057 59.7908 293.907 60.3334 293.907 60.9405C293.907 61.5476 294.054 62.073 294.353 62.5512C294.649 63.0295 295.058 63.4036 295.575 63.6762C296.093 63.9488 296.671 64.0851 297.306 64.0851C297.94 64.0851 298.518 63.9488 299.036 63.6762Z" fill="#FF6200"/>
<path d="M242.817 58.6906C243.79 58.6906 244.579 57.9817 244.579 57.1072C244.579 56.2327 243.79 55.5237 242.817 55.5237C241.843 55.5237 241.054 56.2327 241.054 57.1072C241.054 57.9817 241.843 58.6906 242.817 58.6906Z" fill="#FF6200"/>
<path d="M83.3828 24.7201H90.7519V38.795C86.918 41.6694 81.6401 43.2057 76.661 43.2057C65.7069 43.2057 57.6407 35.7223 57.6407 25.2653C57.6407 14.8083 65.7069 7.32483 76.8104 7.32483C82.9347 7.32483 88.0134 9.40632 91.3992 13.3215L86.2209 18.0792C83.6815 15.403 80.7439 14.164 77.2087 14.164C70.4371 14.164 65.8065 18.6739 65.8065 25.2653C65.8065 31.8567 70.4371 36.3666 77.1091 36.3666C79.2999 36.3666 81.3413 35.9701 83.3828 34.8798V24.7201Z" fill="#3C096C"/>
<path d="M121.373 27.3964V42.6111H114.104V39.2906C112.66 41.719 109.872 43.0075 105.938 43.0075C99.6645 43.0075 95.9302 39.5384 95.9302 34.9294C95.9302 30.3204 99.2662 26.9503 107.432 26.9503H113.606C113.606 23.6299 111.614 21.697 107.432 21.697C104.594 21.697 101.656 22.6387 99.7143 24.175L96.926 18.7731C99.8637 16.6916 104.196 15.5517 108.478 15.5517C116.643 15.5517 121.373 19.3182 121.373 27.3964ZM113.606 34.1835V31.4577H108.278C104.644 31.4577 103.498 32.7958 103.498 34.58C103.498 36.5128 105.142 37.8013 107.88 37.8013C110.469 37.8013 112.71 36.6119 113.606 34.1835Z" fill="#3C096C"/>
<path d="M150.452 36.6615V42.6086H126.552V37.95L140.195 21.8928H126.9V15.9457H150.003V20.6043L136.361 36.6615H150.452Z" fill="#3C096C"/>
<path d="M181.173 31.4577H160.908C161.655 34.7782 164.493 36.8101 168.576 36.8101C171.414 36.8101 173.455 35.9676 175.297 34.233L179.43 38.6934C176.94 41.5183 173.206 43.005 168.376 43.005C159.115 43.005 153.09 37.2066 153.09 29.2771C153.09 21.3476 159.215 15.5492 167.381 15.5492C175.546 15.5492 181.322 20.8025 181.322 29.3762C181.322 29.9709 181.222 30.8135 181.173 31.4577ZM160.808 26.9478H174.003C173.455 23.5778 170.916 21.3972 167.43 21.3972C163.945 21.3972 161.356 23.5282 160.808 26.9478Z" fill="#3C096C"/>
<path d="M187.048 7.91956H195.114V36.0692H212.591V42.6111H187.048V7.91956Z" fill="#3C096C"/>
<path d="M242.466 31.4577H222.201C222.948 34.7782 225.786 36.8101 229.868 36.8101C232.707 36.8101 234.748 35.9676 236.59 34.233L240.723 38.6934C238.233 41.5183 234.499 43.005 229.669 43.005C220.408 43.005 214.383 37.2066 214.383 29.2771C214.383 21.3476 220.508 15.5492 228.673 15.5492C236.839 15.5492 242.615 20.8025 242.615 29.3762C242.615 29.9709 242.515 30.8135 242.466 31.4577ZM222.101 26.9478H235.296C234.748 23.5778 232.209 21.3972 228.723 21.3972C225.238 21.3972 222.649 23.5282 222.101 26.9478Z" fill="#3C096C"/>
<path d="M275.178 27.3443V42.6086H267.411V28.5337C267.411 24.2221 265.419 22.2397 261.984 22.2397C258.249 22.2397 255.561 24.5194 255.561 29.4258V42.6086H247.793V15.9457H255.212V19.0679C257.303 16.7882 260.44 15.5492 264.075 15.5492C270.398 15.5492 275.178 19.2166 275.178 27.3443Z" fill="#3C096C"/>
<path d="M279.61 40.1306L282.199 34.58C284.589 36.1163 288.224 37.157 291.51 37.157C295.095 37.157 296.439 36.2154 296.439 34.7286C296.439 30.3674 280.257 34.8278 280.257 24.1725C280.257 19.1175 284.838 15.5492 292.655 15.5492C296.34 15.5492 300.423 16.3917 302.962 17.8785L300.373 23.3796C297.734 21.8928 295.095 21.3972 292.655 21.3972C289.17 21.3972 287.676 22.4875 287.676 23.8752C287.676 28.4346 303.858 24.0238 303.858 34.5304C303.858 39.4863 299.228 43.005 291.211 43.005C286.68 43.005 282.099 41.7661 279.61 40.1306Z" fill="#3C096C"/>
<path d="M46.2809 39.0205C46.2809 39.0205 40.5275 48.5681 32.3369 49.2941C32.3369 49.2941 23.962 47.9808 18.6194 39.0031C18.6194 39.0031 35.7301 45.706 46.2809 39.0205Z" fill="url(#paint0_linear_156_20)"/>
<path d="M30.3304 49.7228C30.3304 49.7228 19.4784 52.4262 13.1723 47.173C13.1723 47.173 8.18327 40.3486 10.7849 30.241C10.7849 30.241 18.1216 47.0243 30.3304 49.7228Z" fill="url(#paint1_linear_156_20)"/>
<path d="M11.4495 46.0653C11.4495 46.0653 1.85725 40.3387 1.12781 32.1862C1.12781 32.1862 2.44727 23.8504 11.4669 18.5327C11.4669 18.5327 4.73269 35.5637 11.4495 46.0653Z" fill="url(#paint2_linear_156_20)"/>
<path d="M0.699595 30.189C0.699595 30.189 -2.01651 19.3875 3.26135 13.1108C3.26135 13.1108 10.1176 8.14501 20.2725 10.7345C20.2725 10.7345 3.41072 18.037 0.699595 30.189Z" fill="url(#paint3_linear_156_20)"/>
<path d="M4.37415 11.3961C4.37415 11.3961 10.1275 1.84854 18.3182 1.1225C18.3182 1.1225 26.693 2.43582 32.0356 11.4135C32.0356 11.4135 14.9249 4.71059 4.37415 11.3961Z" fill="url(#paint4_linear_156_20)"/>
<path d="M20.3248 0.69628C20.3248 0.69628 31.1768 -2.00718 37.4829 3.2461C37.4829 3.2461 42.4719 10.0704 39.8704 20.178C39.8704 20.178 32.5336 3.39478 20.3248 0.69628Z" fill="url(#paint5_linear_156_20)"/>
<path d="M39.2031 4.35376C39.2031 4.35376 48.7954 10.0803 49.5248 18.2328C49.5248 18.2328 48.2053 26.5687 39.1857 31.8864C39.1857 31.8864 45.9199 14.8554 39.2031 4.35376Z" fill="url(#paint6_linear_156_20)"/>
<path d="M49.9555 20.23C49.9555 20.23 52.6716 31.0315 47.3937 37.3082C47.3937 37.3082 40.5375 42.274 30.3826 39.6845C30.3826 39.6845 47.2444 32.382 49.9555 20.23Z" fill="url(#paint7_linear_156_20)"/>
<path d="M27.201 14.5828L21.0991 15.3113C20.3074 15.4055 19.5879 15.8094 19.095 16.4314L15.2984 21.2411C14.8055 21.8655 14.5839 22.656 14.6785 23.444L15.4104 29.5175C15.505 30.3055 15.9108 31.0216 16.5357 31.5123L21.3679 35.2912C21.9953 35.7818 22.7895 36.0023 23.5811 35.9082L29.6831 35.1796C30.4747 35.0855 31.1942 34.6816 31.6872 34.0596L35.4837 29.2499C35.9767 28.6254 36.1982 27.835 36.1036 27.047L35.3717 20.9735C35.2771 20.1855 34.8713 19.4694 34.2464 18.9787L29.4142 15.1998C28.7868 14.7092 27.9926 14.4886 27.201 14.5828Z" fill="url(#paint8_linear_156_20)"/>
<defs>
<linearGradient id="paint0_linear_156_20" x1="21.5045" y1="39.7173" x2="41.18" y2="44.6826" gradientUnits="userSpaceOnUse">
<stop stop-color="#2E005A"/>
<stop offset="0.03" stop-color="#2E005B"/>
<stop offset="0.53" stop-color="#380667"/>
<stop offset="1" stop-color="#3C096C"/>
</linearGradient>
<linearGradient id="paint1_linear_156_20" x1="12.3184" y1="32.7785" x2="22.6707" y2="50.1569" gradientUnits="userSpaceOnUse">
<stop stop-color="#2E005A"/>
<stop offset="0.03" stop-color="#2E005B"/>
<stop offset="0.53" stop-color="#380667"/>
<stop offset="1" stop-color="#3C096C"/>
</linearGradient>
<linearGradient id="paint2_linear_156_20" x1="10.7494" y1="21.4044" x2="5.84774" y2="41.0099" gradientUnits="userSpaceOnUse">
<stop stop-color="#2E005A"/>
<stop offset="0.03" stop-color="#2E005B"/>
<stop offset="0.53" stop-color="#380667"/>
<stop offset="1" stop-color="#3C096C"/>
</linearGradient>
<linearGradient id="paint3_linear_156_20" x1="17.7232" y1="12.2609" x2="0.349224" y2="22.7076" gradientUnits="userSpaceOnUse">
<stop stop-color="#2E005A"/>
<stop offset="0.03" stop-color="#2E005B"/>
<stop offset="0.53" stop-color="#380667"/>
<stop offset="1" stop-color="#3C096C"/>
</linearGradient>
<linearGradient id="paint4_linear_156_20" x1="29.1505" y1="10.6993" x2="9.47505" y2="5.734" gradientUnits="userSpaceOnUse">
<stop stop-color="#2E005A"/>
<stop offset="0.03" stop-color="#2E005B"/>
<stop offset="0.53" stop-color="#380667"/>
<stop offset="1" stop-color="#3C096C"/>
</linearGradient>
<linearGradient id="paint5_linear_156_20" x1="38.3368" y1="17.6406" x2="27.9845" y2="0.262171" gradientUnits="userSpaceOnUse">
<stop stop-color="#2E005A"/>
<stop offset="0.03" stop-color="#2E005B"/>
<stop offset="0.53" stop-color="#380667"/>
<stop offset="1" stop-color="#3C096C"/>
</linearGradient>
<linearGradient id="paint6_linear_156_20" x1="39.9032" y1="29.0122" x2="44.8049" y2="9.40672" gradientUnits="userSpaceOnUse">
<stop stop-color="#2E005A"/>
<stop offset="0.03" stop-color="#2E005B"/>
<stop offset="0.53" stop-color="#380667"/>
<stop offset="1" stop-color="#3C096C"/>
</linearGradient>
<linearGradient id="paint7_linear_156_20" x1="32.9319" y1="38.1581" x2="50.3058" y2="27.7114" gradientUnits="userSpaceOnUse">
<stop stop-color="#2E005A"/>
<stop offset="0.03" stop-color="#2E005B"/>
<stop offset="0.53" stop-color="#380667"/>
<stop offset="1" stop-color="#3C096C"/>
</linearGradient>
<linearGradient id="paint8_linear_156_20" x1="32.8174" y1="32.6348" x2="17.707" y2="17.4536" gradientUnits="userSpaceOnUse">
<stop stop-color="#2E005A"/>
<stop offset="0.03" stop-color="#2E005B"/>
<stop offset="0.53" stop-color="#380667"/>
<stop offset="1" stop-color="#3C096C"/>
</linearGradient>
</defs>
</svg>
