<svg width="165" height="27" viewBox="0 0 165 27" fill="none" xmlns="http://www.w3.org/2000/svg">
<path d="M45.2784 13.2379H49.2799V20.7752C47.1981 22.3144 44.3321 23.1372 41.6283 23.1372C35.6801 23.1372 31.3 19.1297 31.3 13.5299C31.3 7.93002 35.6801 3.92255 41.7095 3.92255C45.0351 3.92255 47.7929 5.03721 49.6314 7.13383L46.8195 9.68163C45.4406 8.24849 43.8454 7.585 41.9258 7.585C38.2487 7.585 35.7342 10.0001 35.7342 13.5299C35.7342 17.0596 38.2487 19.4747 41.8717 19.4747C43.0613 19.4747 44.1699 19.2624 45.2784 18.6785V13.2379Z" fill="#3C096C"/>
<path d="M65.9078 14.6711V22.8187H61.9603V21.0406C61.1763 22.341 59.6622 23.031 57.5262 23.031C54.1195 23.031 52.0917 21.1733 52.0917 18.7051C52.0917 16.2369 53.9032 14.4322 58.3373 14.4322H61.69C61.69 12.6541 60.6085 11.619 58.3373 11.619C56.7962 11.619 55.201 12.1233 54.1465 12.946L52.6324 10.0532C54.2276 8.93853 56.5799 8.32812 58.9051 8.32812C63.3392 8.32812 65.9078 10.3451 65.9078 14.6711ZM61.69 18.3057V16.846H58.797C56.8232 16.846 56.2014 17.5626 56.2014 18.518C56.2014 19.553 57.0936 20.2431 58.5807 20.2431C59.9866 20.2431 61.2033 19.6061 61.69 18.3057Z" fill="#3C096C"/>
<path d="M81.6977 19.6327V22.8174H68.7197V20.3227L76.128 11.7239H68.909V8.53912H81.4544V11.0338L74.0461 19.6327H81.6977Z" fill="#3C096C"/>
<path d="M98.3798 16.846H87.3756C87.7812 18.6241 89.3223 19.7122 91.5394 19.7122C93.0805 19.7122 94.189 19.2611 95.1894 18.3322L97.4335 20.7207C96.0817 22.2335 94.0539 23.0297 91.4312 23.0297C86.4023 23.0297 83.1307 19.9246 83.1307 15.6782C83.1307 11.4319 86.4563 8.32678 90.8905 8.32678C95.3246 8.32678 98.461 11.14 98.461 15.7313C98.461 16.0498 98.4069 16.501 98.3798 16.846ZM87.3215 14.4309H94.4865C94.189 12.6262 92.8101 11.4584 90.9175 11.4584C89.0249 11.4584 87.619 12.5996 87.3215 14.4309Z" fill="#3C096C"/>
<path d="M101.57 4.24103H105.95V19.3155H115.44V22.8187H101.57V4.24103Z" fill="#3C096C"/>
<path d="M131.663 16.846H120.659C121.064 18.6241 122.605 19.7122 124.822 19.7122C126.364 19.7122 127.472 19.2611 128.473 18.3322L130.717 20.7207C129.365 22.2335 127.337 23.0297 124.714 23.0297C119.685 23.0297 116.414 19.9246 116.414 15.6782C116.414 11.4319 119.739 8.32678 124.174 8.32678C128.608 8.32678 131.744 11.14 131.744 15.7313C131.744 16.0498 131.69 16.501 131.663 16.846ZM120.605 14.4309H127.77C127.472 12.6262 126.093 11.4584 124.201 11.4584C122.308 11.4584 120.902 12.5996 120.605 14.4309Z" fill="#3C096C"/>
<path d="M149.426 14.6432V22.8174H145.209V15.2801C145.209 12.9712 144.127 11.9096 142.262 11.9096C140.234 11.9096 138.774 13.1304 138.774 15.7579V22.8174H134.556V8.5391H138.584V10.2111C139.72 8.99027 141.423 8.32678 143.397 8.32678C146.831 8.32678 149.426 10.2907 149.426 14.6432Z" fill="#3C096C"/>
<path d="M151.833 21.4904L153.239 18.518C154.537 19.3407 156.51 19.898 158.295 19.898C160.241 19.898 160.971 19.3938 160.971 18.5976C160.971 16.2621 152.184 18.6507 152.184 12.9447C152.184 10.2376 154.672 8.32678 158.917 8.32678C160.917 8.32678 163.134 8.77795 164.513 9.57414L163.107 12.52C161.674 11.7238 160.241 11.4584 158.917 11.4584C157.024 11.4584 156.213 12.0423 156.213 12.7854C156.213 15.2271 165 12.865 165 18.4914C165 21.1454 162.486 23.0297 158.132 23.0297C155.672 23.0297 153.185 22.3662 151.833 21.4904Z" fill="#3C096C"/>
<path d="M25.1312 20.8959C25.1312 20.8959 22.0071 26.0087 17.5594 26.3975C17.5594 26.3975 13.0117 25.6942 10.1106 20.8866C10.1106 20.8866 19.402 24.4761 25.1312 20.8959Z" fill="url(#paint0_linear_86_2910)"/>
<path d="M16.4698 26.6272C16.4698 26.6272 10.577 28.0749 7.15271 25.2617C7.15271 25.2617 4.44356 21.6072 5.85627 16.1945C5.85627 16.1945 9.84024 25.1821 16.4698 26.6272Z" fill="url(#paint1_linear_86_2910)"/>
<path d="M6.21741 24.6685C6.21741 24.6685 1.00865 21.6018 0.612549 17.2361C0.612549 17.2361 1.32904 12.7721 6.22687 9.92444C6.22687 9.92444 2.57006 19.0448 6.21741 24.6685Z" fill="url(#paint2_linear_86_2910)"/>
<path d="M0.379916 16.1666C0.379916 16.1666 -1.09498 10.3823 1.77099 7.02105C1.77099 7.02105 5.49405 4.36178 11.0083 5.74848C11.0083 5.74848 1.8521 9.65908 0.379916 16.1666Z" fill="url(#paint3_linear_86_2910)"/>
<path d="M2.37524 6.10278C2.37524 6.10278 5.49942 0.98994 9.94708 0.601135C9.94708 0.601135 14.4948 1.30443 17.3959 6.11207C17.3959 6.11207 8.10448 2.5226 2.37524 6.10278Z" fill="url(#paint4_linear_86_2910)"/>
<path d="M11.0369 0.372868C11.0369 0.372868 16.9297 -1.07486 20.354 1.73833C20.354 1.73833 23.0631 5.39282 21.6504 10.8056C21.6504 10.8056 17.6664 1.81795 11.0369 0.372868Z" fill="url(#paint5_linear_86_2910)"/>
<path d="M21.288 2.33148C21.288 2.33148 26.4968 5.39813 26.8929 9.76388C26.8929 9.76388 26.1764 14.2278 21.2786 17.0755C21.2786 17.0755 24.9354 7.95521 21.288 2.33148Z" fill="url(#paint6_linear_86_2910)"/>
<path d="M27.1267 10.8334C27.1267 10.8334 28.6016 16.6177 25.7356 19.979C25.7356 19.979 22.0126 22.6382 16.4983 21.2515C16.4983 21.2515 25.6545 17.3409 27.1267 10.8334Z" fill="url(#paint7_linear_86_2910)"/>
<path d="M14.7705 7.80925L11.4571 8.19938C11.0272 8.24981 10.6365 8.4661 10.3688 8.79917L8.30721 11.3748C8.03954 11.7092 7.91922 12.1325 7.9706 12.5545L8.36805 15.8069C8.41942 16.2289 8.63977 16.6124 8.97909 16.8752L11.6031 18.8988C11.9437 19.1615 12.375 19.2796 12.8049 19.2292L16.1183 18.8391C16.5482 18.7887 16.9389 18.5724 17.2066 18.2393L19.2682 15.6636C19.5359 15.3292 19.6562 14.9059 19.6048 14.4839L19.2074 11.2315C19.156 10.8095 18.9356 10.426 18.5963 10.1633L15.9723 8.13967C15.6317 7.87692 15.2004 7.75882 14.7705 7.80925Z" fill="url(#paint8_linear_86_2910)"/>
<defs>
<linearGradient id="paint0_linear_86_2910" x1="11.6775" y1="21.2692" x2="22.3426" y2="23.9996" gradientUnits="userSpaceOnUse">
<stop stop-color="#2E005A"/>
<stop offset="0.03" stop-color="#2E005B"/>
<stop offset="0.53" stop-color="#380667"/>
<stop offset="1" stop-color="#3C096C"/>
</linearGradient>
<linearGradient id="paint1_linear_86_2910" x1="6.68902" y1="17.5533" x2="12.1944" y2="26.927" gradientUnits="userSpaceOnUse">
<stop stop-color="#2E005A"/>
<stop offset="0.03" stop-color="#2E005B"/>
<stop offset="0.53" stop-color="#380667"/>
<stop offset="1" stop-color="#3C096C"/>
</linearGradient>
<linearGradient id="paint2_linear_86_2910" x1="5.83841" y1="11.4625" x2="3.24468" y2="21.9775" gradientUnits="userSpaceOnUse">
<stop stop-color="#2E005A"/>
<stop offset="0.03" stop-color="#2E005B"/>
<stop offset="0.53" stop-color="#380667"/>
<stop offset="1" stop-color="#3C096C"/>
</linearGradient>
<linearGradient id="paint3_linear_86_2910" x1="-527.316" y1="6.5659" x2="0.164023" y2="12.331" gradientUnits="userSpaceOnUse">
<stop stop-color="#2E005A"/>
<stop offset="0.03" stop-color="#2E005B"/>
<stop offset="0.53" stop-color="#380667"/>
<stop offset="1" stop-color="#3C096C"/>
</linearGradient>
<linearGradient id="paint4_linear_86_2910" x1="15.829" y1="5.73076" x2="5.16391" y2="3.00038" gradientUnits="userSpaceOnUse">
<stop stop-color="#2E005A"/>
<stop offset="0.03" stop-color="#2E005B"/>
<stop offset="0.53" stop-color="#380667"/>
<stop offset="1" stop-color="#3C096C"/>
</linearGradient>
<linearGradient id="paint5_linear_86_2910" x1="20.8177" y1="9.44673" x2="15.3123" y2="0.0730286" gradientUnits="userSpaceOnUse">
<stop stop-color="#2E005A"/>
<stop offset="0.03" stop-color="#2E005B"/>
<stop offset="0.53" stop-color="#380667"/>
<stop offset="1" stop-color="#3C096C"/>
</linearGradient>
<linearGradient id="paint6_linear_86_2910" x1="21.6684" y1="15.5375" x2="24.2621" y2="5.02245" gradientUnits="userSpaceOnUse">
<stop stop-color="#2E005A"/>
<stop offset="0.03" stop-color="#2E005B"/>
<stop offset="0.53" stop-color="#380667"/>
<stop offset="1" stop-color="#3C096C"/>
</linearGradient>
<linearGradient id="paint7_linear_86_2910" x1="17.8826" y1="20.4341" x2="27.2468" y2="14.726" gradientUnits="userSpaceOnUse">
<stop stop-color="#2E005A"/>
<stop offset="0.03" stop-color="#2E005B"/>
<stop offset="0.53" stop-color="#380667"/>
<stop offset="1" stop-color="#3C096C"/>
</linearGradient>
<linearGradient id="paint8_linear_86_2910" x1="17.8203" y1="17.4763" x2="9.72983" y2="9.23399" gradientUnits="userSpaceOnUse">
<stop stop-color="#2E005A"/>
<stop offset="0.03" stop-color="#2E005B"/>
<stop offset="0.53" stop-color="#380667"/>
<stop offset="1" stop-color="#3C096C"/>
</linearGradient>
</defs>
</svg>
