<svg width="16" height="17" viewBox="0 0 16 17" fill="none" xmlns="http://www.w3.org/2000/svg">
<g clip-path="url(#clip0_156_1242)">
<path d="M8 0.987976C6.21817 0.988949 4.49483 1.62387 3.13827 2.77914C1.78172 3.93441 0.880472 5.53466 0.595766 7.29359C0.31106 9.05252 0.661473 10.8554 1.58431 12.3796C2.50716 13.9038 3.94221 15.05 5.63275 15.613C6.00775 15.6832 6.1485 15.449 6.1485 15.2615V13.8552C4.0625 14.3 3.61725 12.9645 3.61725 12.9645C3.26575 12.0972 2.7735 11.863 2.7735 11.863C2.09375 11.3942 2.82025 11.4177 2.82025 11.4177C3.57025 11.4647 3.96875 12.1912 3.96875 12.1912C4.6485 13.3397 5.7265 13.0115 6.1485 12.824C6.18144 12.4434 6.34741 12.0866 6.61725 11.8162C4.95325 11.6287 3.19525 10.9725 3.19525 8.11323C3.18141 7.36634 3.45883 6.64339 3.96875 6.09748C3.74736 5.4472 3.77236 4.73829 4.039 4.10523C4.039 4.10523 4.67175 3.89423 6.1015 4.87873C6.71252 4.71109 7.34291 4.62443 7.9765 4.62098C8.6102 4.62283 9.2408 4.70952 9.8515 4.87873C11.2812 3.91773 11.914 4.10523 11.914 4.10523C12.1806 4.73829 12.2056 5.4472 11.9842 6.09748C12.4979 6.64107 12.7759 7.36559 12.7577 8.11323C12.7577 10.996 11 11.629 9.33575 11.8165C9.51383 11.9981 9.65177 12.2151 9.74062 12.4534C9.82947 12.6918 9.86724 12.9461 9.8515 13.2V15.2625C9.8515 15.4735 9.992 15.6842 10.3672 15.614C12.0585 15.0515 13.4944 13.9055 14.4178 12.381C15.3413 10.8565 15.692 9.05313 15.4072 7.29367C15.1225 5.53421 14.2208 3.93355 12.8636 2.77819C11.5064 1.62284 9.78235 0.988237 8 0.987976Z" stroke="#FF6200" stroke-width="0.78" stroke-miterlimit="10" stroke-linecap="round" stroke-linejoin="round"/>
</g>
<defs>
<clipPath id="clip0_156_1242">
<rect y="0.5" width="16" height="16" rx="8" fill="white"/>
</clipPath>
</defs>
</svg>
