<svg width="527" height="758" viewBox="0 0 527 758" fill="none" xmlns="http://www.w3.org/2000/svg">
<g id="Luces">
<g id="Polygon 1" filter="url(#filter0_i_85_2730)">
<mask id="mask0_85_2730" style="mask-type:alpha" maskUnits="userSpaceOnUse" x="366" y="173" width="114" height="114">
<path id="Polygon" d="M406.449 176.396C411.272 173.441 417.072 172.523 422.572 173.844L449.288 180.261C454.788 181.582 459.538 185.033 462.493 189.857L476.847 213.285C479.802 218.108 480.72 223.908 479.399 229.408L472.982 256.124C471.661 261.624 468.209 266.374 463.386 269.329L439.958 283.683C435.134 286.638 429.335 287.556 423.835 286.235L397.119 279.818C391.619 278.497 386.869 275.045 383.914 270.222L369.56 246.794C366.605 241.971 365.687 236.171 367.008 230.671L373.425 203.955C374.746 198.455 378.197 193.705 383.021 190.75L406.449 176.396Z" fill="#D9D9D9"/>
</mask>
<g mask="url(#mask0_85_2730)">
<path id="Color 1" d="M406.449 176.396C411.272 173.441 417.072 172.523 422.572 173.844L449.288 180.261C454.788 181.582 459.538 185.033 462.493 189.857L476.847 213.285C479.802 218.108 480.72 223.908 479.399 229.408L472.982 256.124C471.661 261.624 468.209 266.374 463.386 269.329L439.958 283.683C435.134 286.638 429.335 287.556 423.835 286.235L397.119 279.818C391.619 278.497 386.869 275.045 383.914 270.222L369.56 246.794C366.605 241.971 365.687 236.171 367.008 230.671L373.425 203.955C374.746 198.455 378.197 193.705 383.021 190.75L406.449 176.396Z" fill="#9D4EDD"/>
<g id="Color 2" filter="url(#filter1_f_85_2730)">
<path fill-rule="evenodd" clip-rule="evenodd" d="M353.178 237.683C353.165 241.607 354.236 245.493 356.32 248.894L376.034 281.071C378.989 285.895 383.739 289.346 389.239 290.667L425.931 299.48C431.431 300.801 437.231 299.883 442.054 296.928L474.231 277.214C479.054 274.259 482.506 269.509 483.827 264.009L492.639 227.317C493.96 221.817 493.042 216.017 490.087 211.194L470.373 179.017C467.418 174.194 462.668 170.742 457.169 169.421L420.476 160.608C416.434 159.637 412.23 159.876 408.37 161.244L434.739 167.577C440.239 168.898 444.989 172.35 447.944 177.173L463.04 201.813C465.995 206.636 466.913 212.435 465.592 217.935L458.844 246.033C457.523 251.533 454.071 256.283 449.248 259.238L424.608 274.334C419.785 277.289 413.985 278.207 408.485 276.886L380.388 270.137C374.888 268.817 370.138 265.365 367.183 260.542L353.178 237.683Z" fill="#FFDFD2"/>
</g>
<g id="Color 3" filter="url(#filter2_f_85_2730)">
<path fill-rule="evenodd" clip-rule="evenodd" d="M390.88 165.07C395.703 162.115 401.503 161.197 407.003 162.518L443.849 171.367C447.732 172.3 451.242 174.295 454.01 177.085L433.372 172.129C427.872 170.808 422.073 171.726 417.249 174.681L395.571 187.963C390.748 190.918 387.296 195.668 385.975 201.168L380.037 225.888C378.716 231.388 379.634 237.188 382.589 242.011L395.871 263.69C398.826 268.513 403.576 271.965 409.076 273.286L433.797 279.223C439.297 280.544 445.097 279.626 449.92 276.671L471.176 263.648L470.552 266.244C469.231 271.743 465.78 276.493 460.956 279.448L428.645 299.245C423.822 302.2 418.022 303.118 412.522 301.797L375.676 292.947C370.176 291.626 365.426 288.174 362.471 283.351L342.675 251.04C339.72 246.216 338.802 240.417 340.123 234.917L348.973 198.071C350.294 192.571 353.745 187.821 358.568 184.866L390.88 165.07Z" fill="#3C096C"/>
</g>
</g>
</g>
<g id="Blur Ellipse" filter="url(#filter3_b_85_2730)">
<circle cx="199.945" cy="199.945" r="199.945" transform="matrix(-0.15634 -0.987703 -0.987703 0.15634 523.617 524.731)" fill="#3E3650" fill-opacity="0.01"/>
</g>
<g id="Bottom Polygon" filter="url(#filter4_i_85_2730)">
<mask id="mask1_85_2730" style="mask-type:alpha" maskUnits="userSpaceOnUse" x="189" y="180" width="23" height="21">
<path id="Mask" d="M190.581 199.473C189.359 199.397 188.678 198.026 189.355 197.006L199.76 181.327C200.437 180.306 201.965 180.402 202.51 181.498L210.886 198.349C211.431 199.445 210.584 200.721 209.362 200.644L190.581 199.473Z" fill="#FF5F6D"/>
</mask>
<g mask="url(#mask1_85_2730)">
<path id="Color 1_2" d="M190.581 199.473C189.359 199.397 188.678 198.026 189.355 197.006L199.76 181.327C200.437 180.306 201.965 180.402 202.51 181.498L210.886 198.349C211.431 199.445 210.584 200.721 209.362 200.644L190.581 199.473Z" fill="#FF6200" fill-opacity="0.75"/>
<g id="Color 2_2" filter="url(#filter5_f_85_2730)">
<path d="M186.863 197.804L200.131 192.132L216.504 204.765L202.277 174.576L187.356 193.447L186.863 197.804Z" fill="#FF6200"/>
</g>
</g>
</g>
<g id="Top Polygon" filter="url(#filter6_i_85_2730)">
<mask id="mask2_85_2730" style="mask-type:alpha" maskUnits="userSpaceOnUse" x="205" y="222" width="33" height="30">
<path id="Mask_2" d="M224.202 223.542C223.383 221.964 221.163 221.864 220.206 223.362L205.495 246.381C204.537 247.879 205.561 249.852 207.337 249.932L234.627 251.163C236.403 251.243 237.6 249.37 236.781 247.792L224.202 223.542Z" fill="#A870EF"/>
</mask>
<g mask="url(#mask2_85_2730)">
<path id="Color 1_3" d="M224.202 223.542C223.383 221.964 221.163 221.864 220.206 223.362L205.495 246.381C204.537 247.879 205.561 249.852 207.337 249.932L234.627 251.163C236.403 251.243 237.6 249.37 236.781 247.792L224.202 223.542Z" fill="#3C096C"/>
<g id="Color 2_3" filter="url(#filter7_f_85_2730)">
<circle cx="27.2695" cy="27.2695" r="27.2695" transform="matrix(0.998984 0.0450537 0.0450537 -0.998984 168.997 281.964)" fill="#FFDFD2"/>
</g>
</g>
</g>
<g id="Top Polygon_2" filter="url(#filter8_i_85_2730)">
<mask id="mask3_85_2730" style="mask-type:alpha" maskUnits="userSpaceOnUse" x="149" y="188" width="29" height="27">
<path id="Mask_3" d="M166.642 189.828C165.925 188.446 163.981 188.358 163.143 189.67L150.261 209.827C149.423 211.138 150.319 212.866 151.874 212.936L175.771 214.013C177.326 214.084 178.374 212.444 177.657 211.062L166.642 189.828Z" fill="#A870EF"/>
</mask>
<g mask="url(#mask3_85_2730)">
<path id="Color 1_4" d="M166.642 189.828C165.925 188.446 163.981 188.358 163.143 189.67L150.261 209.827C149.423 211.138 150.319 212.866 151.874 212.936L175.771 214.013C177.326 214.084 178.374 212.444 177.657 211.062L166.642 189.828Z" fill="#3C096C"/>
<g id="Color 2_4" filter="url(#filter9_f_85_2730)">
<circle cx="23.8782" cy="23.8782" r="23.8782" transform="matrix(0.998984 0.0450537 0.0450537 -0.998984 118.302 240.978)" fill="#FFDFD2"/>
</g>
</g>
</g>
<g id="Polygon " filter="url(#filter10_i_85_2730)">
<mask id="mask4_85_2730" style="mask-type:alpha" maskUnits="userSpaceOnUse" x="377" y="453" width="52" height="52">
<path id="Mask_4" d="M378.637 485.272C377.717 483.771 377.432 481.967 377.843 480.255L381.205 466.257C381.616 464.546 382.69 463.067 384.191 462.148L396.466 454.627C397.967 453.708 399.772 453.422 401.483 453.833L415.481 457.195C417.193 457.606 418.671 458.68 419.59 460.181L427.111 472.457C428.03 473.957 428.316 475.762 427.905 477.473L424.543 491.472C424.132 493.183 423.058 494.661 421.557 495.581L409.282 503.101C407.781 504.021 405.976 504.307 404.265 503.895L390.267 500.533C388.555 500.122 387.077 499.048 386.158 497.547L378.637 485.272Z" fill="#D9D9D9"/>
</mask>
<g mask="url(#mask4_85_2730)">
<path id="Color 1_5" d="M378.637 485.272C377.717 483.771 377.432 481.967 377.843 480.255L381.205 466.257C381.616 464.546 382.69 463.067 384.191 462.148L396.466 454.627C397.967 453.708 399.772 453.422 401.483 453.833L415.481 457.195C417.193 457.606 418.671 458.68 419.59 460.181L427.111 472.457C428.03 473.957 428.316 475.762 427.905 477.473L424.543 491.472C424.132 493.183 423.058 494.661 421.557 495.581L409.282 503.101C407.781 504.021 405.976 504.307 404.265 503.895L390.267 500.533C388.555 500.122 387.077 499.048 386.158 497.547L378.637 485.272Z" fill="#FF6200" fill-opacity="0.75"/>
<g id="Color 2_5" opacity="0.7" filter="url(#filter11_f_85_2730)">
<path fill-rule="evenodd" clip-rule="evenodd" d="M361.769 482.906C361.368 484.574 361.647 486.332 362.543 487.795L376.622 510.774C377.517 512.237 378.958 513.283 380.625 513.684L406.83 519.978C408.497 520.378 410.256 520.1 411.718 519.204L434.698 505.125C436.16 504.229 437.207 502.789 437.607 501.121L443.901 474.917C444.301 473.249 444.023 471.491 443.127 470.029L442.392 468.829L438.725 484.097C438.324 485.764 437.278 487.204 435.816 488.1L421.535 496.849C420.073 497.745 418.314 498.024 416.647 497.623L400.362 493.712C398.695 493.311 397.255 492.265 396.359 490.803L387.609 476.522C386.713 475.06 386.435 473.301 386.836 471.634L390.747 455.349C391.147 453.682 392.194 452.242 393.656 451.346L407.937 442.596C409.399 441.701 411.157 441.422 412.825 441.823L427.551 445.36C426.821 444.781 425.968 444.361 425.044 444.139L398.84 437.846C397.172 437.445 395.414 437.723 393.952 438.619L370.972 452.698C369.51 453.594 368.463 455.034 368.063 456.702L361.769 482.906Z" fill="#FF6200"/>
</g>
</g>
</g>
</g>
<defs>
<filter id="filter0_i_85_2730" x="366.418" y="173.254" width="113.57" height="113.57" filterUnits="userSpaceOnUse" color-interpolation-filters="sRGB">
<feFlood flood-opacity="0" result="BackgroundImageFix"/>
<feBlend mode="normal" in="SourceGraphic" in2="BackgroundImageFix" result="shape"/>
<feColorMatrix in="SourceAlpha" type="matrix" values="0 0 0 0 0 0 0 0 0 0 0 0 0 0 0 0 0 0 127 0" result="hardAlpha"/>
<feOffset/>
<feGaussianBlur stdDeviation="6.05997"/>
<feComposite in2="hardAlpha" operator="arithmetic" k2="-1" k3="1"/>
<feColorMatrix type="matrix" values="0 0 0 0 1 0 0 0 0 1 0 0 0 0 1 0 0 0 1 0"/>
<feBlend mode="normal" in2="shape" result="effect1_innerShadow_85_2730"/>
</filter>
<filter id="filter1_f_85_2730" x="320.858" y="127.699" width="204.691" height="204.691" filterUnits="userSpaceOnUse" color-interpolation-filters="sRGB">
<feFlood flood-opacity="0" result="BackgroundImageFix"/>
<feBlend mode="normal" in="SourceGraphic" in2="BackgroundImageFix" result="shape"/>
<feGaussianBlur stdDeviation="16.1599" result="effect1_foregroundBlur_85_2730"/>
</filter>
<filter id="filter2_f_85_2730" x="307.213" y="129.608" width="196.282" height="205.098" filterUnits="userSpaceOnUse" color-interpolation-filters="sRGB">
<feFlood flood-opacity="0" result="BackgroundImageFix"/>
<feBlend mode="normal" in="SourceGraphic" in2="BackgroundImageFix" result="shape"/>
<feGaussianBlur stdDeviation="16.1599" result="effect1_foregroundBlur_85_2730"/>
</filter>
<filter id="filter3_b_85_2730" x="-38.3996" y="25.234" width="666.541" height="666.541" filterUnits="userSpaceOnUse" color-interpolation-filters="sRGB">
<feFlood flood-opacity="0" result="BackgroundImageFix"/>
<feGaussianBlur in="BackgroundImageFix" stdDeviation="66.6483"/>
<feComposite in2="SourceAlpha" operator="in" result="effect1_backgroundBlur_85_2730"/>
<feBlend mode="normal" in="SourceGraphic" in2="effect1_backgroundBlur_85_2730" result="shape"/>
</filter>
<filter id="filter4_i_85_2730" x="189.088" y="180.616" width="21.9669" height="20.0321" filterUnits="userSpaceOnUse" color-interpolation-filters="sRGB">
<feFlood flood-opacity="0" result="BackgroundImageFix"/>
<feBlend mode="normal" in="SourceGraphic" in2="BackgroundImageFix" result="shape"/>
<feColorMatrix in="SourceAlpha" type="matrix" values="0 0 0 0 0 0 0 0 0 0 0 0 0 0 0 0 0 0 127 0" result="hardAlpha"/>
<feOffset/>
<feGaussianBlur stdDeviation="3.35057"/>
<feComposite in2="hardAlpha" operator="arithmetic" k2="-1" k3="1"/>
<feColorMatrix type="matrix" values="0 0 0 0 1 0 0 0 0 1 0 0 0 0 1 0 0 0 1 0"/>
<feBlend mode="normal" in2="shape" result="effect1_innerShadow_85_2730"/>
</filter>
<filter id="filter5_f_85_2730" x="176.141" y="163.854" width="51.0844" height="51.6333" filterUnits="userSpaceOnUse" color-interpolation-filters="sRGB">
<feFlood flood-opacity="0" result="BackgroundImageFix"/>
<feBlend mode="normal" in="SourceGraphic" in2="BackgroundImageFix" result="shape"/>
<feGaussianBlur stdDeviation="5.36091" result="effect1_foregroundBlur_85_2730"/>
</filter>
<filter id="filter6_i_85_2730" x="205.128" y="222.296" width="31.9164" height="28.869" filterUnits="userSpaceOnUse" color-interpolation-filters="sRGB">
<feFlood flood-opacity="0" result="BackgroundImageFix"/>
<feBlend mode="normal" in="SourceGraphic" in2="BackgroundImageFix" result="shape"/>
<feColorMatrix in="SourceAlpha" type="matrix" values="0 0 0 0 0 0 0 0 0 0 0 0 0 0 0 0 0 0 127 0" result="hardAlpha"/>
<feOffset/>
<feGaussianBlur stdDeviation="5.72797"/>
<feComposite in2="hardAlpha" operator="arithmetic" k2="-1" k3="1"/>
<feColorMatrix type="matrix" values="0 0 0 0 1 0 0 0 0 1 0 0 0 0 1 0 0 0 1 0"/>
<feBlend mode="normal" in2="shape" result="effect1_innerShadow_85_2730"/>
</filter>
<filter id="filter7_f_85_2730" x="150.559" y="209.042" width="93.8175" height="93.8176" filterUnits="userSpaceOnUse" color-interpolation-filters="sRGB">
<feFlood flood-opacity="0" result="BackgroundImageFix"/>
<feBlend mode="normal" in="SourceGraphic" in2="BackgroundImageFix" result="shape"/>
<feGaussianBlur stdDeviation="9.81937" result="effect1_foregroundBlur_85_2730"/>
</filter>
<filter id="filter8_i_85_2730" x="149.94" y="188.737" width="27.9473" height="25.2787" filterUnits="userSpaceOnUse" color-interpolation-filters="sRGB">
<feFlood flood-opacity="0" result="BackgroundImageFix"/>
<feBlend mode="normal" in="SourceGraphic" in2="BackgroundImageFix" result="shape"/>
<feColorMatrix in="SourceAlpha" type="matrix" values="0 0 0 0 0 0 0 0 0 0 0 0 0 0 0 0 0 0 127 0" result="hardAlpha"/>
<feOffset/>
<feGaussianBlur stdDeviation="5.01562"/>
<feComposite in2="hardAlpha" operator="arithmetic" k2="-1" k3="1"/>
<feColorMatrix type="matrix" values="0 0 0 0 1 0 0 0 0 1 0 0 0 0 1 0 0 0 1 0"/>
<feBlend mode="normal" in2="shape" result="effect1_innerShadow_85_2730"/>
</filter>
<filter id="filter9_f_85_2730" x="102.157" y="177.124" width="82.1502" height="82.1502" filterUnits="userSpaceOnUse" color-interpolation-filters="sRGB">
<feFlood flood-opacity="0" result="BackgroundImageFix"/>
<feBlend mode="normal" in="SourceGraphic" in2="BackgroundImageFix" result="shape"/>
<feGaussianBlur stdDeviation="8.59821" result="effect1_foregroundBlur_85_2730"/>
</filter>
<filter id="filter10_i_85_2730" x="377.659" y="453.65" width="50.4295" height="50.4295" filterUnits="userSpaceOnUse" color-interpolation-filters="sRGB">
<feFlood flood-opacity="0" result="BackgroundImageFix"/>
<feBlend mode="normal" in="SourceGraphic" in2="BackgroundImageFix" result="shape"/>
<feColorMatrix in="SourceAlpha" type="matrix" values="0 0 0 0 0 0 0 0 0 0 0 0 0 0 0 0 0 0 127 0" result="hardAlpha"/>
<feOffset/>
<feGaussianBlur stdDeviation="4.42431"/>
<feComposite in2="hardAlpha" operator="arithmetic" k2="-1" k3="1"/>
<feColorMatrix type="matrix" values="0 0 0 0 1 0 0 0 0 1 0 0 0 0 1 0 0 0 1 0"/>
<feBlend mode="normal" in2="shape" result="effect1_innerShadow_85_2730"/>
</filter>
<filter id="filter11_f_85_2730" x="336.443" y="412.52" width="132.783" height="132.783" filterUnits="userSpaceOnUse" color-interpolation-filters="sRGB">
<feFlood flood-opacity="0" result="BackgroundImageFix"/>
<feBlend mode="normal" in="SourceGraphic" in2="BackgroundImageFix" result="shape"/>
<feGaussianBlur stdDeviation="12.5734" result="effect1_foregroundBlur_85_2730"/>
</filter>
</defs>
</svg>
