<svg width="102" height="103" viewBox="0 0 102 103" fill="none" xmlns="http://www.w3.org/2000/svg">
<path d="M15.9375 73.8125H3.1875V3.6875H73.3125V16.4375" stroke="#3C096C" stroke-width="3" stroke-miterlimit="10" stroke-linecap="round" stroke-linejoin="round"/>
<path d="M28.6875 86.5625H15.9375V16.4375H86.0625V29.1875" stroke="#3C096C" stroke-width="3" stroke-miterlimit="10" stroke-linecap="round" stroke-linejoin="round"/>
<path d="M28.6875 83.375H98.8125M28.6875 29.1875H98.8125V99.3125H28.6875V29.1875Z" stroke="#3C096C" stroke-width="3" stroke-miterlimit="10" stroke-linecap="round" stroke-linejoin="round"/>
<path d="M44.625 51.5C48.1458 51.5 51 48.6458 51 45.125C51 41.6042 48.1458 38.75 44.625 38.75C41.1042 38.75 38.25 41.6042 38.25 45.125C38.25 48.6458 41.1042 51.5 44.625 51.5Z" stroke="#3C096C" stroke-width="3" stroke-miterlimit="10" stroke-linecap="round" stroke-linejoin="round"/>
<path d="M38.25 83.375C38.25 78.9125 39.2062 61.0625 49.8844 61.0625C60.5625 61.0625 56.4188 70.625 60.5625 70.625C64.7062 70.625 61.5187 45.125 73.3125 45.125C85.1063 45.125 89.25 79.8687 89.25 83.375" stroke="#3C096C" stroke-width="3" stroke-miterlimit="10" stroke-linecap="round" stroke-linejoin="round"/>
</svg>
